<svg xmlns="http://www.w3.org/2000/svg" width="32" height="32" viewBox="0 0 24 24">
  <g
    fill="none"
    stroke="currentColor"
    stroke-linecap="round"
    stroke-linejoin="round"
    stroke-width="1.5"
    color="currentColor"
  >
    <path
      d="M12 20.5c1.81 0 3.545-.179 5.153-.507c2.01-.41 3.014-.614 3.93-1.792c.917-1.179.917-2.532.917-5.238v-1.926c0-2.706 0-4.06-.917-5.238c-.916-1.178-1.92-1.383-3.93-1.792A26 26 0 0 0 12 3.5c-1.81 0-3.545.179-5.153.507c-2.01.41-3.014.614-3.93 1.792C2 6.978 2 8.331 2 11.037v1.926c0 2.706 0 4.06.917 5.238c.916 1.178 1.92 1.383 3.93 1.792c1.608.328 3.343.507 5.153.507"
    />
    <path
      d="M15.962 12.313c-.148.606-.938 1.04-2.517 1.911c-1.718.947-2.577 1.42-3.272 1.237a1.7 1.7 0 0 1-.635-.317C9 14.709 9 13.806 9 12s0-2.709.538-3.144c.182-.147.4-.256.635-.317c.695-.183 1.554.29 3.272 1.237c1.58.87 2.369 1.305 2.517 1.911c.05.206.05.42 0 .626"
    />
  </g>
</svg>
