<svg xmlns="http://www.w3.org/2000/svg" viewBox="0 0 58 38" fill="none">
  <path
    d="M13.5926 13.2255C13.3742 13.0416 13.1903 12.8233 13.0754 12.5704C12.949 12.0992 13.0065 11.6395 13.1559 11.1798C13.4087 10.4443 13.8339 9.80066 14.2362 9.13408C14.6729 8.42153 15.2016 7.78942 15.7303 7.16881C16.7991 5.9046 18.0403 4.82428 19.3505 3.81291C20.7756 2.72109 22.2812 1.77868 24.0166 1.27299C24.9475 0.997166 25.9014 0.882238 26.8553 1.07762C28.6712 1.44539 29.8319 3.16931 29.5791 5.12309C29.3722 6.76656 28.7516 8.28361 28.154 9.81216C27.5104 11.4671 26.7978 13.0991 26.0853 14.7196C26.0738 14.7426 26.0393 14.7771 26.0508 14.7885C26.0738 14.8345 26.1198 14.823 26.1542 14.8C26.8208 14.6047 27.4759 14.3978 28.1425 14.2024C28.3034 14.1564 28.4643 14.1105 28.6252 14.076C29.3722 13.8806 30.1078 13.8806 30.6824 14.4897C31.28 15.1218 31.2915 15.8919 31.0847 16.6734C31.0042 16.9837 30.6939 17.6732 30.7284 17.7422C30.7629 17.7192 30.8088 17.6847 30.8433 17.6618C31.9581 16.6734 33.0959 15.731 34.4521 15.0644C34.8198 14.8805 35.1876 14.7311 35.5784 14.6391C36.7621 14.3633 37.7735 15.1333 37.8195 16.3401C37.8424 16.9492 37.6586 17.5123 37.4287 18.0755C36.8081 19.5351 35.9806 20.8797 35.2566 22.2819C35.0957 22.6037 34.9463 22.937 34.7968 23.2588C34.1532 24.4655 33.6246 25.7182 33.3832 27.0629C33.3258 27.4077 33.3143 27.7639 33.2223 28.0857C33.0155 28.7983 32.2914 29.0511 31.6708 28.6489C31.2111 28.3501 30.9812 27.9019 30.8778 27.3732C30.6824 26.3733 30.8433 25.4079 31.1651 24.454C31.8432 22.4543 32.935 20.6614 33.9809 18.8455C34.3256 18.2364 34.6819 17.6388 35.0267 17.0296C34.4291 17.225 33.9694 17.5698 33.5441 17.9606C30.6939 20.5694 28.4183 23.6265 26.6025 27.0284C26.4071 27.3962 26.2347 27.7754 25.9359 28.0857C25.4187 28.6259 24.7062 28.6029 24.2235 28.0398C23.9017 27.6605 23.7982 27.2123 23.8212 26.7181C23.8557 25.9251 24.1315 25.201 24.3958 24.4655C25.2808 22.098 26.5335 19.9258 27.7517 17.7192C28.0391 17.202 28.2919 16.6619 28.6022 16.0757C27.407 16.3056 26.2922 16.524 25.2233 16.9262C25.0279 16.9952 24.9475 17.1446 24.8556 17.3055C24.5682 17.8801 24.2809 18.4433 23.9936 19.0179C22.534 22.006 21.0399 24.9712 19.4539 27.8904C19.3505 28.0857 19.362 28.2007 19.5114 28.3501C19.9366 28.7523 20.3504 29.1661 20.7756 29.5683C23.4075 32.0623 26.5105 33.2345 30.1537 33.0162C32.8201 32.8438 35.406 32.2921 37.9574 31.5566C40.7271 30.7636 43.3705 29.6373 45.9564 28.3846C46.2437 28.2466 46.3012 28.1432 46.0598 27.8904C45.7035 27.5111 45.5311 27.0399 45.4967 26.5342C45.4392 25.7872 45.5541 25.0631 45.761 24.3506C45.8414 24.0633 45.9449 23.7759 46.0368 23.4771C45.3128 24.0288 44.6577 24.6379 43.9911 25.2125C43.1866 25.9251 42.3246 26.5687 41.2788 26.879C39.8652 27.3042 38.5665 26.6836 38.0378 25.3045C37.6356 24.2816 37.7045 23.2358 37.9459 22.1899C38.0263 22.075 38.1413 21.6153 38.1757 21.5233C39.5779 18.3743 41.8534 16.0068 44.7956 14.1564C44.1635 13.9726 43.5889 13.7542 43.0142 13.5128C41.681 12.9612 40.4628 12.2831 39.6238 11.0534C39.5089 10.881 39.394 10.9155 39.2331 10.9844C38.8193 11.1683 38.3941 11.3637 37.9344 11.4326C37.762 11.4671 37.5781 11.4786 37.3942 11.4786C36.923 11.4671 36.6012 11.2258 36.4978 10.812C36.3943 10.4213 36.5553 10.042 36.9805 9.81216C37.4862 9.54782 38.0033 9.30647 38.509 9.06512C38.6814 8.98467 38.7963 8.88124 38.7849 8.66288C38.7619 6.99642 39.3365 5.49086 40.2215 4.11172C41.3018 2.42228 42.7154 1.1006 44.6002 0.330582C45.4047 0.00878348 46.2437 -0.106146 47.0942 0.112218C48.5308 0.479988 49.2893 1.79017 48.91 3.22677C48.7032 4.00828 48.2894 4.67487 47.7722 5.29548C46.2782 7.09985 44.3589 8.37556 42.3706 9.57081C42.1637 9.69723 41.9569 9.80066 41.7615 9.92708C41.1639 10.2949 41.2443 10.2029 41.681 10.6741C42.2787 11.3177 43.0832 11.6625 43.8877 11.9728C45.1519 12.444 46.4736 12.7313 47.8067 12.9382C48.186 12.9957 48.5882 12.9382 48.9675 12.9727C51.0017 13.1681 52.0591 14.5472 51.7718 16.5699C51.5649 17.9836 51.0247 19.2707 50.4156 20.535C49.795 21.8222 49.1284 23.0864 48.5767 24.408C48.2549 25.1781 48.0481 25.9596 48.1285 26.7985C48.1515 27.0629 48.232 27.1089 48.4618 26.9709C50.8523 25.5228 53.1854 24.0173 54.9438 21.7877C55.4839 21.0981 55.9436 20.3626 56.116 19.4661C56.3229 18.3973 55.9781 17.6158 55.0357 17.0756C54.7599 16.9147 54.4611 16.7998 54.2312 16.5584C53.9899 16.2941 53.8634 15.9953 54.0243 15.6505C54.1967 15.2942 54.5185 15.1678 54.8863 15.1908C55.1851 15.2138 55.4495 15.3057 55.7138 15.4551C57.6561 16.501 58.4261 18.4892 57.771 20.7303C57.3343 22.2359 56.3689 23.3967 55.346 24.523C54.1508 25.8446 52.7027 26.856 51.2546 27.8674C51.2086 27.9019 51.1626 27.9363 51.1167 27.9708C48.232 29.8556 45.1174 31.2922 41.8994 32.5105C39.6813 33.3495 37.3942 33.993 35.0727 34.4987C34.9922 34.5217 34.9118 34.5332 34.8428 34.5562C34.5785 34.5217 34.3486 34.6826 34.0958 34.7171C32.8316 34.901 31.5559 35.0159 30.2802 35.0964C26.1887 35.3492 22.6489 34.0505 19.6148 31.3152C19.2241 30.9589 18.8218 30.6027 18.4655 30.2234C18.2472 29.9821 18.1323 30.0395 17.9714 30.2694C16.8795 31.8094 15.6383 33.2115 14.3281 34.5562C13.0754 35.8319 11.6618 36.8548 9.94936 37.4294C9.37472 37.6248 8.75411 37.6593 8.14499 37.7167C7.59333 37.7627 7.05317 37.6822 6.54749 37.5328C6.21419 37.4294 5.86941 37.188 5.54761 36.9697C4.51326 36.2571 4.06504 35.2113 3.85817 34.0275C3.61682 32.6024 3.90414 31.2578 4.4443 29.9476C4.67416 29.3729 4.91551 28.7983 5.2488 28.3041C6.5245 26.3963 7.9611 24.6149 9.58159 22.9829C9.98384 22.5807 10.3861 22.1669 10.7768 21.7647C10.8688 21.6727 10.9837 21.6038 10.8343 21.4314C9.81145 20.2936 8.84605 19.0984 7.4899 18.3168C6.65092 17.8341 5.74299 17.5468 4.75461 17.5123C4.6052 17.5123 4.4443 17.5009 4.29489 17.4779C3.8007 17.3974 3.46741 17.0871 3.43293 16.6619C3.38696 16.2596 3.6398 15.8689 4.07653 15.685C4.67416 15.4436 5.30626 15.4896 5.92687 15.5701C6.0418 15.5816 7.31751 15.9378 7.84618 16.1102C7.88065 16.1792 7.93812 16.1907 8.00708 16.1907C8.7771 16.6389 9.48965 17.1676 10.1792 17.7307C10.1907 17.7537 10.2022 17.7652 10.2252 17.7767C10.2941 17.8341 10.3631 17.9031 10.4321 17.9606C10.4895 18.064 10.57 18.1445 10.6849 18.1904C11.0182 18.5237 11.34 18.8685 11.6733 19.2018C11.7767 19.3167 11.8917 19.4316 11.9951 19.5351C12.11 19.6845 12.2364 19.8339 12.3514 19.9948C12.4778 20.1787 12.5467 20.0523 12.6272 19.9488C12.7421 19.8569 12.8456 19.7649 12.9605 19.6615C13.0984 19.5925 13.2133 19.4891 13.3053 19.3627C13.6615 19.0639 14.0178 18.7536 14.3856 18.4548C15.5004 17.5583 16.6037 16.6504 17.73 15.7539C20.3619 13.6508 22.8903 11.4326 25.0739 8.84676C26.0623 7.67449 26.9128 6.39879 27.2231 4.85875C27.4644 3.61753 26.9817 3.05438 25.7175 3.12334C25.5221 3.13483 25.3268 3.16931 25.1429 3.20379C24.212 3.41066 23.3615 3.83589 22.5685 4.35307C19.408 6.44476 16.7991 9.05363 15.1441 12.513C14.7993 13.2945 14.3856 13.4554 13.5926 13.2255ZM23.6488 13.4439C23.4534 13.3175 23.373 13.5128 23.281 13.6048C22.4536 14.3633 21.6376 15.1448 20.8216 15.9148C20.7526 15.9838 20.6492 16.0298 20.6492 16.1562C21.1549 16.0643 21.6491 15.9723 22.1433 15.9034C22.4191 15.8689 22.58 15.7195 22.6834 15.4666C22.9707 14.7656 23.281 14.0875 23.6488 13.4439ZM7.92662 35.4756C8.1335 35.4526 8.34037 35.4411 8.54724 35.3952C9.93787 35.1308 11.0527 34.3263 12.0526 33.4069C13.7305 31.8669 15.1326 30.0855 16.3279 28.1432C16.4313 27.9823 16.4083 27.9019 16.2934 27.7524C15.1096 26.3963 13.9374 25.0401 12.7766 23.684C12.6157 23.5001 12.5238 23.5001 12.3629 23.6725C11.7078 24.3391 11.0642 25.0057 10.4436 25.7067C9.0874 27.2697 7.84618 28.9017 6.96123 30.7866C6.47853 31.8324 6.12225 32.9012 6.31763 34.085C6.45554 35.0389 6.96123 35.4756 7.92662 35.4756ZM40.164 24.2586C40.1525 25.1436 40.3134 25.247 40.9685 24.9597C41.6696 24.6609 42.2442 24.1782 42.7958 23.661C44.3934 22.1669 45.8759 20.5579 47.324 18.926C48.1285 18.018 48.956 17.1331 49.5881 16.0987C50.0248 15.3862 49.7375 14.9265 48.887 14.9265C48.7721 14.9265 48.6687 14.938 48.5538 14.9609C47.8297 15.0644 47.1631 15.3747 46.554 15.7654C44.2784 17.225 42.4511 19.1328 41.1524 21.5004C40.6467 22.3968 40.2215 23.3507 40.164 24.2586ZM21.5111 17.9146C20.6607 18.11 19.8907 18.2709 19.1551 18.5352C17.2243 19.2363 15.7532 20.6039 14.2247 21.9026C14.0868 22.0175 14.1213 22.075 14.2132 22.1899C15.259 23.4082 16.2819 24.6264 17.3278 25.8446C17.4657 26.0055 17.5691 26.1549 17.73 25.8331C18.4081 24.3851 19.1206 22.9599 19.8102 21.5233C20.3619 20.3511 20.9135 19.1673 21.5111 17.9146ZM40.98 7.92734C42.6809 6.91597 44.2095 5.84714 45.6231 4.60591C46.0943 4.19217 46.5425 3.75544 46.8758 3.21528C47.0597 2.90497 47.3125 2.5487 47.0482 2.2154C46.7954 1.88211 46.3816 2.02003 46.0368 2.10048C45.1864 2.31884 44.4508 2.77855 43.7842 3.33021C42.3706 4.53695 41.3363 5.97356 40.98 7.92734Z"
    fill="black"
  />
  <path
    d="M51.586 4.4873C53.2524 4.56775 54.6661 5.10792 55.597 6.54452C56.6773 8.21098 56.1601 10.6475 54.5281 11.7852C54.2523 11.9806 53.9535 12.1185 53.6202 12.176C53.2295 12.2335 52.9077 12.1185 52.6663 11.7967C52.425 11.4749 52.402 11.1301 52.5514 10.7739C52.6663 10.498 52.8847 10.3027 53.0915 10.0958C53.4018 9.78549 53.7351 9.47519 53.9535 9.08443C54.3787 8.31441 54.2408 7.63633 53.5398 7.09617C52.9191 6.62497 52.1836 6.46407 51.4251 6.4181C51.1607 6.4066 50.8964 6.4066 50.6321 6.36063C50.2068 6.29167 49.8965 5.95839 49.8621 5.59062C49.8276 5.17687 50.0459 4.83209 50.4827 4.67119C50.6091 4.62522 50.747 4.57925 50.8849 4.56775C51.1378 4.52178 51.3791 4.51029 51.586 4.4873Z"
    fill="black"
  />
  <ellipse cx="1.11466" cy="16.596" rx="1.11466" ry="1.08088" fill="black" />
</svg>
