<svg xmlns="http://www.w3.org/2000/svg" fill="none" viewBox="0 0 24 25">
  <mask
    id="a"
    width="24"
    height="25"
    x="0"
    y="0"
    maskUnits="userSpaceOnUse"
    style="mask-type: alpha"
  >
    <path fill="currentColor" d="M0 .9h24v24H0z" />
  </mask>
  <g mask="url(#a)">
    <path
      fill="currentColor"
      d="m10.6 17.5 7-7L16.3 9l-5.6 5.7-2.8-2.9-1.5 1.4 4.3 4.3Zm1.4 5.4a9.7 9.7 0 0 1-7-3A10.1 10.1 0 0 1 2.7 9 10.1 10.1 0 0 1 12 3a9.7 9.7 0 0 1 7 3 10.1 10.1 0 0 1 2.2 10.9 10.1 10.1 0 0 1-9.2 6Zm0-2c2.2 0 4.1-.8 5.7-2.3a7.7 7.7 0 0 0 2.3-5.7c0-2.2-.8-4.1-2.3-5.7A7.7 7.7 0 0 0 12 5c-2.2 0-4.1.8-5.7 2.3A7.7 7.7 0 0 0 4 13c0 2.2.8 4.1 2.3 5.7a7.7 7.7 0 0 0 5.7 2.3Z"
    />
  </g>
</svg>
