<svg xmlns="http://www.w3.org/2000/svg" fill="none" viewBox="0 0 24 25">
  <mask
    id="a"
    width="24"
    height="25"
    x="0"
    y="0"
    maskUnits="userSpaceOnUse"
    style="mask-type: alpha"
  >
    <path fill="currentColor" d="M0 .4h24v24H0z" />
  </mask>
  <g mask="url(#a)">
    <path
      fill="currentColor"
      d="M8 20.4h8v-3c0-1-.4-2-1.2-2.8a3.9 3.9 0 0 0-2.8-1.2c-1.1 0-2 .4-2.8 1.2-.8.8-1.2 1.7-1.2 2.8v3Zm4-9c1.1 0 2-.3 2.8-1.1.8-.8 1.2-1.8 1.2-2.9v-3H8v3c0 1.1.4 2 1.2 2.9.8.8 1.7 1.1 2.8 1.1Zm-8 11v-2h2v-3c0-1 .2-2 .7-2.8.5-1 1.1-1.6 2-2.2a5.6 5.6 0 0 1-2-2 6 6 0 0 1-.7-3v-3H4v-2h16v2h-2v3c0 1-.2 2-.7 3-.5.8-1.2 1.5-2 2a6 6 0 0 1 2.7 5v3h2v2H4Z"
    />
  </g>
</svg>
