<svg
  width="713"
  height="1075"
  viewBox="0 0 713 1075"
  fill="none"
  xmlns="http://www.w3.org/2000/svg"
>
  <path
    d="M356.599 116.729L0.435547 969.046C0.435547 969.046 56.0212 1028.75 152.782 1053.46C229.522 1073.05 356.599 1074.04 356.599 1074.04C356.599 1074.04 483.675 1073.05 560.408 1053.46C657.177 1028.75 712.764 969.046 712.764 969.046L356.599 116.729Z"
    fill="#59B3EA"
  />
  <path
    d="M357.003 346.282C378.656 337.545 388.785 307.71 411.979 304.978C421.717 303.829 430.629 307.819 439.15 313.702L422.731 274.387C412.859 276.118 403.216 279.147 394.181 283.461C377.425 291.454 359.708 304.018 342.112 298.135C329.032 293.753 321.386 280.621 311.646 270.857C307.503 266.705 302.906 263.175 297.981 260.213L276.236 312.254C303.822 328.943 328.486 357.777 357.003 346.282Z"
    fill="#FEBE00"
  />
  <path
    d="M658.266 838.068C650.066 842.308 642.519 848.028 633.626 850.442C622.119 853.562 610.333 850.722 598.506 847.895C587.733 845.322 576.906 842.748 566.239 844.655C544.999 848.455 531.146 868.215 517.653 885.055C504.159 901.882 484.293 918.642 463.439 913.082C443.719 907.828 434.626 885.882 421.826 869.988C399.679 842.482 359.466 831.175 326.217 843.095C297.271 853.468 276.254 878.308 250.478 895.068C206.723 923.535 143.662 925.335 105.019 890.242C87.1419 874.015 74.6513 850.922 58.3979 833.548L37.0059 884.735C59.8259 895.855 79.6246 914.015 99.3592 930.575C125.741 952.722 157.094 973.962 191.427 971.202C240.483 967.255 276.535 915.868 325.722 914.188C359.426 913.042 388.559 935.562 417.346 953.122C446.146 970.682 484.333 983.735 512.186 964.722C533.453 950.202 541.786 920.895 564.439 908.642C584.839 897.615 608.733 904.015 632.506 910.428C652.799 915.895 672.986 921.362 690.813 915.975L658.266 838.068Z"
    fill="#FEBE00"
  />
  <path
    d="M194.494 779.842C229.615 782.308 248.312 740.562 274.498 717.028C299.479 694.575 337.654 688.082 368.654 701.015C402.214 715.015 431.641 749.975 466.947 741.295C514.774 729.548 521.694 647.962 570.747 643.588C572.841 643.402 574.907 643.375 576.947 643.495L551.267 582.015C530.587 588.162 511.334 598.962 495.881 614.068C483.321 626.362 472.027 641.788 455.014 646.215C432.241 652.148 410.401 636.055 388.867 626.535C354.161 611.188 312.333 613.015 279.077 631.295C248.249 648.255 224.727 678.215 191.203 688.882C183.666 691.282 175.361 692.602 167.932 689.882C145.192 681.575 149.577 649.135 148.583 624.948C148.499 622.908 148.338 620.882 148.106 618.868L114.494 699.308C144.547 723.108 155.615 777.108 194.494 779.842Z"
    fill="#FEBE00"
  />
  <path
    d="M293.853 522.095C305.79 517.749 314.59 507.775 323.695 498.922C338.587 484.429 357.641 471.495 378.334 473.215C416.694 476.415 445.014 527.828 481.641 516.015C494.214 511.962 503.667 500.989 513.334 491.242L491.601 439.229C482.174 446.189 472.707 453.469 461.254 454.629C436.787 457.122 419.907 431.855 399.481 418.175C375.254 401.962 340.934 402.602 317.325 419.709C303.778 429.522 293.678 444.042 278.727 451.548C260.69 460.602 238.463 457.629 220.429 448.562C220.11 448.402 219.801 448.229 219.483 448.055L206.418 479.322C218.087 488.642 228.387 499.789 240.311 508.842C255.589 520.455 275.822 528.655 293.853 522.095Z"
    fill="#FEBE00"
  />
  <path
    d="M305.483 166.539L308.494 107.341L261.439 71.3087L318.664 55.8857L338.396 -0.000253045L370.756 49.6561L429.996 51.1529L392.768 97.271L409.661 154.079L354.289 132.925L305.483 166.539Z"
    fill="#FEBE00"
  />
  <path
    d="M175.674 887.815C155.61 887.815 139.037 868.002 136.15 847.735C133.123 826.482 140.966 805.348 148.673 785.308C152.138 776.295 155.603 767.282 159.068 758.268C168.512 770.002 179.411 778.775 194.494 779.842C195.493 779.908 196.484 779.948 197.458 779.948C208.8 779.948 218.413 775.282 227.165 768.215C224.678 784.575 222.557 800.988 220.805 817.442C219.231 832.215 217.869 847.348 211.698 860.882C205.525 874.402 193.417 886.242 178.622 887.682C177.63 887.775 176.65 887.815 175.674 887.815ZM185.13 690.495C202.844 644.428 220.558 598.375 238.273 552.308C241.643 543.535 245.303 529.815 249.65 515.095C259.157 520.642 269.791 524.428 280.286 524.428C284.871 524.428 289.428 523.708 293.852 522.095C293.943 522.055 294.033 522.028 294.122 521.988C277.421 563.775 263.266 606.562 251.738 650.055C232.539 665.122 214.23 681.562 191.203 688.882C189.222 689.522 187.187 690.068 185.13 690.495Z"
    fill="#92CDF1"
  />
  <path
    d="M197.458 779.948C196.484 779.948 195.492 779.908 194.494 779.842C179.411 778.775 168.512 770.002 159.068 758.268C167.755 735.682 176.443 713.082 185.13 690.495C187.187 690.068 189.222 689.522 191.203 688.882C214.23 681.562 232.539 665.122 251.738 650.055C241.426 688.962 233.214 728.428 227.164 768.215C218.412 775.282 208.8 779.948 197.458 779.948Z"
    fill="#FED457"
  />
  <path
    d="M278.871 451.468C280.259 450.188 281.692 449.082 283.17 448.175C285.086 447.002 286.875 446.042 288.543 445.268C285.508 447.615 282.319 449.722 278.871 451.468Z"
    fill="#92CDF1"
  />
  <path
    d="M280.284 524.429C269.79 524.429 259.155 520.642 249.648 515.095C256.876 490.629 266.004 463.375 278.87 451.469C282.318 449.722 285.507 447.615 288.542 445.269C292.256 443.535 295.367 442.762 297.964 442.762C318.696 442.762 306.302 492.469 300.324 506.802C298.218 511.855 296.151 516.909 294.12 521.989C294.031 522.029 293.942 522.055 293.851 522.095C289.427 523.709 284.87 524.429 280.284 524.429Z"
    fill="#FED457"
  />
  <path
    d="M307.046 413.562C303.405 413.562 299.96 412.242 298.054 409.188C296.296 406.362 296.308 402.815 296.381 399.495C296.806 381.468 296.973 353.642 304.961 332.388C316.332 340.442 327.613 347.268 339.346 348.668C336.68 361.095 333.506 372.588 332.48 377.882C330.026 390.548 326.553 404.708 315.444 411.268C312.972 412.722 309.948 413.562 307.046 413.562Z"
    fill="#92CDF1"
  />
  <path
    d="M339.346 348.668C327.613 347.268 316.332 340.442 304.961 332.389C308.513 322.935 313.612 314.788 320.966 309.375C327.081 304.882 331.68 302.948 335.066 302.948C347.053 302.948 343.946 327.202 339.346 348.668Z"
    fill="#FED457"
  />
  <path
    d="M332.294 122.385C330.293 122.385 328.187 121.588 326.726 120.186C323.998 117.588 323.008 113.676 322.512 109.942C321.471 102.149 322.047 94.1337 324.196 86.5763C324.754 84.5984 325.426 82.5911 325.147 80.5541C324.915 78.8567 324.031 77.3216 323.6 75.6536C322.31 70.6794 325.462 65.3066 329.973 62.8563C334.307 60.5094 343.653 58.7234 351.92 58.7234C357.506 58.7234 362.586 59.5352 365.307 61.5426C370.586 65.4394 372.759 73.3362 369.559 79.0632C364.626 87.9047 351.253 87.89 344.599 95.5211C339.96 100.85 339.693 108.525 338.586 115.507C338.307 117.248 337.933 119.079 336.8 120.451C335.679 121.795 334.026 122.385 332.294 122.385Z"
    fill="#FED457"
  />
</svg>
